<svg width="869" height="662" viewBox="0 0 869 662" fill="none" xmlns="http://www.w3.org/2000/svg">
<g id="Onlineeducation">
<g id="Layer 62">
<g id="Group">
<path id="Vector" d="M754.678 603.465C790.225 603.465 819.04 574.637 819.04 539.077C819.04 503.517 790.225 474.689 754.678 474.689C719.132 474.689 690.316 503.517 690.316 539.077C690.316 574.637 719.132 603.465 754.678 603.465Z" fill="#A6D2FF"/>
</g>
<g id="Group_2">
<path id="Vector_2" d="M717.096 448.687C723.062 448.687 727.898 443.849 727.898 437.881C727.898 431.912 723.062 427.074 717.096 427.074C711.131 427.074 706.294 431.912 706.294 437.881C706.294 443.849 711.131 448.687 717.096 448.687Z" fill="#D3BEFF"/>
</g>
</g>
<g id="Layer 61">
<g id="Group_3">
<path id="Vector_3" d="M194.324 580.614C253.112 580.614 300.769 533.442 300.769 475.252C300.769 417.063 253.112 369.891 194.324 369.891C135.536 369.891 87.8789 417.063 87.8789 475.252C87.8789 533.442 135.536 580.614 194.324 580.614Z" fill="#FECE26"/>
</g>
</g>
<g id="Layer 64">
<g id="Group_4">
<path id="Vector_4" d="M574.757 580.841V621.927H368.844C357.479 621.927 348.252 612.584 348.252 600.99C348.252 589.396 357.479 580.053 368.956 580.053C424.992 580.278 575.77 580.841 574.757 580.841Z" fill="#E8F4FF"/>
</g>
</g>
<g id="Layer 57">
<g id="Group_5">
<path id="Vector_5" d="M577.458 625.304H369.632C356.579 625.304 345.89 614.722 345.89 601.552C345.89 588.382 356.467 577.801 369.632 577.801H577.908C579.146 577.801 580.158 578.814 580.158 580.052C580.158 581.29 579.146 582.303 577.908 582.303H369.632C359.055 582.303 350.39 590.971 350.39 601.552C350.39 612.133 359.055 620.801 369.632 620.801H577.458C578.696 620.801 579.708 621.814 579.708 623.052C579.708 624.29 578.696 625.304 577.458 625.304Z" fill="#ADD3FF"/>
</g>
</g>
<g id="Layer 55">
<g id="Group_6">
<path id="Vector_6" d="M825.68 580.841V621.927H619.766C608.402 621.927 599.175 612.584 599.175 600.99C599.175 589.396 608.402 580.053 619.879 580.053C675.914 580.278 826.692 580.841 825.68 580.841Z" fill="#E8F4FF"/>
</g>
</g>
<g id="Layer 56">
<g id="Group_7">
<path id="Vector_7" d="M734.2 591.646L825.004 589.957V592.546L734.2 591.646Z" fill="#D1DAE1"/>
</g>
<g id="Group_8">
<path id="Vector_8" d="M772.907 601.551L825.229 600.088V603.465L772.907 601.551Z" fill="#D1DAE1"/>
</g>
<g id="Group_9">
<path id="Vector_9" d="M483.278 591.646L574.082 589.957V592.546L483.278 591.646Z" fill="#D1DAE1"/>
</g>
<g id="Group_10">
<path id="Vector_10" d="M521.985 601.551L574.307 600.088V603.465L521.985 601.551Z" fill="#D1DAE1"/>
</g>
</g>
<g id="Layer 54">
<g id="Group_11">
<path id="Vector_11" d="M828.38 625.304H620.553C607.501 625.304 596.812 614.722 596.812 601.552C596.812 588.382 607.388 577.801 620.553 577.801H828.83C830.068 577.801 831.08 578.814 831.08 580.052C831.08 581.29 830.068 582.303 828.83 582.303H620.553C609.976 582.303 601.312 590.971 601.312 601.552C601.312 612.133 609.976 620.801 620.553 620.801H828.38C829.618 620.801 830.63 621.814 830.63 623.052C830.63 624.29 829.618 625.304 828.38 625.304Z" fill="#FFD66D"/>
</g>
</g>
<g id="Layer 49">
<g id="Group_12">
<path id="Vector_12" d="M121.86 387.677C121.185 387.677 120.735 387.226 120.735 386.551V314.171H190.835V282.09H227.292C227.967 282.09 228.418 282.54 228.418 283.216C228.418 283.891 227.967 284.341 227.292 284.341H193.198V316.422H123.098V386.551C122.985 387.114 122.423 387.677 121.86 387.677Z" fill="#A5D5FF"/>
</g>
</g>
<g id="Layer 50">
<g id="Group_13">
<path id="Vector_13" d="M225.492 277.137V289.519L237.87 284.566L225.492 277.137Z" fill="#A5D5FF"/>
</g>
</g>
<g id="Layer 48">
<path id="Vector_14" d="M343.077 474.803V527.258H97.781C83.4908 527.258 72.0137 515.552 72.0137 501.031C72.0137 486.51 83.6033 474.803 97.781 474.803H343.077Z" stroke="black" stroke-width="0.9924" stroke-miterlimit="10" stroke-linecap="round"/>
</g>
<g id="Layer 66">
<g id="Group_14">
<path id="Vector_15" d="M99.2436 527.596H335.538C349.94 527.596 361.643 515.889 361.643 501.481C361.643 487.072 349.94 475.365 335.538 475.365H99.2436C84.8409 475.365 73.1387 487.072 73.1387 501.481C73.1387 515.889 84.8409 527.596 99.2436 527.596Z" fill="#E8F4FF"/>
</g>
</g>
<g id="Layer 36">
<g id="Group_15">
<path id="Vector_16" d="M346.565 528.834H98.456C82.5906 528.834 69.7632 515.889 69.7632 500.13C69.7632 484.371 82.7031 471.426 98.456 471.426H347.24V477.054H98.456C85.7412 477.054 75.3892 487.41 75.3892 500.13C75.3892 512.85 85.7412 523.206 98.456 523.206H346.565V528.834Z" fill="#FC3935"/>
</g>
</g>
<g id="Layer 60">
<g id="Group_16">
<path id="Vector_17" d="M295.368 529.172H135.025V565.531H295.368V529.172Z" fill="#E8F4FF"/>
</g>
</g>
<g id="Layer 65">
<g id="Group_17">
<path id="Vector_18" d="M46.4714 565.53V619.224H294.805C309.321 619.224 321.135 607.405 321.135 592.884C321.135 578.476 309.433 566.656 295.03 566.544C226.393 566.318 46.2464 565.305 46.4714 565.53Z" fill="#E8F4FF"/>
</g>
</g>
<g id="Layer 35">
<g id="Group_18">
<path id="Vector_19" d="M294.693 622.263H42.7582C41.5205 622.263 40.5078 621.25 40.5078 620.012C40.5078 618.774 41.5205 617.761 42.7582 617.761H294.693C308.42 617.761 319.56 606.617 319.56 592.884C319.56 579.151 308.42 568.007 294.693 568.007H42.7582C41.5205 568.007 40.5078 566.993 40.5078 565.755C40.5078 564.517 41.5205 563.504 42.7582 563.504H294.693C310.896 563.504 324.061 576.674 324.061 592.884C324.061 609.093 310.896 622.263 294.693 622.263Z" fill="#FFD66D"/>
</g>
</g>
<g id="Layer 58">
<g id="Group_19">
<path id="Vector_20" d="M46.2461 575.775L147.853 577.239L46.4711 580.841L46.2461 575.775Z" fill="#D1DAE1"/>
</g>
<g id="Group_20">
<path id="Vector_21" d="M46.4712 603.578L181.046 605.492L46.4712 607.518V603.578Z" fill="#D1DAE1"/>
</g>
</g>
<g id="Layer 19">
<g id="Group_21">
<path id="Vector_22" d="M336.663 573.861V502.494H687.616C707.87 502.494 724.41 518.704 724.41 538.628C724.41 558.665 707.982 574.874 687.616 574.762C590.848 574.874 336.663 574.762 336.663 573.861Z" fill="#E8F4FF"/>
</g>
</g>
<g id="Layer 59">
<g id="Group_22">
<path id="Vector_23" d="M528.399 517.016L336.55 514.877V521.518L528.399 517.016Z" fill="#D1DAE1"/>
</g>
<g id="Group_23">
<path id="Vector_24" d="M507.807 554.726L336.55 551.236V558.215L507.807 554.726Z" fill="#D1DAE1"/>
</g>
</g>
<g id="Layer 37">
<g id="Group_24">
<path id="Vector_25" d="M156.517 396.794C147.403 406.474 154.942 416.493 154.942 416.493C154.942 416.493 147.29 423.584 144.815 423.584C142.452 423.584 139.526 431.464 145.377 434.616C151.228 437.88 137.276 437.43 139.751 443.734C142.227 450.037 151.228 452.401 159.105 450.375C166.981 448.349 190.723 443.509 193.311 443.959C195.899 444.409 207.376 444.972 208.839 437.092C210.302 429.213 207.264 430.676 208.502 428.537C209.739 426.399 209.064 416.831 203.663 416.268C198.262 415.705 205.013 406.362 201.863 404.561C198.712 402.76 194.324 400.283 194.324 397.019C194.324 393.867 193.086 376.982 182.622 383.173C172.157 389.477 169.119 391.278 165.856 391.953C162.705 392.741 156.517 396.794 156.517 396.794Z" fill="#16153D"/>
</g>
</g>
<g id="Layer 38">
<g id="Group_25">
<path id="Vector_26" d="M169.119 395.556C169.119 395.556 171.82 397.807 171.82 399.27C171.82 400.734 166.193 402.422 167.094 405.124C167.881 407.825 174.07 411.54 169.569 419.307C169.569 419.307 163.155 413.679 160.23 418.294C157.304 422.909 162.705 430.001 168.444 424.71C168.444 424.71 173.282 430.564 172.045 435.066C170.807 439.569 153.366 453.977 151.116 456.004C148.865 457.917 154.829 467.71 164.393 469.061C173.845 470.412 201.188 471.313 204.338 458.593C204.338 458.593 185.097 442.946 184.422 440.357C183.747 437.655 183.972 433.828 185.097 433.153C186.222 432.477 195.674 432.59 195.674 426.511C195.674 420.433 193.424 409.964 193.536 407.825C193.649 405.687 191.173 395.893 186.56 396.231C181.946 396.569 180.259 398.595 178.458 398.595C176.658 398.595 173.507 400.846 172.045 397.357C172.157 397.469 170.019 395.331 169.119 395.556Z" fill="#FC7E56"/>
</g>
</g>
<g id="Layer 45">
<g id="Group_26">
<path id="Vector_27" d="M173.17 413.229C172.72 413.117 172.607 412.892 172.607 412.554C172.607 412.441 173.17 409.627 175.42 408.164C176.771 407.263 178.346 407.151 180.259 407.601C180.596 407.714 180.709 407.939 180.709 408.276C180.596 408.614 180.371 408.727 180.034 408.727C178.459 408.276 177.108 408.502 176.096 409.177C174.295 410.415 173.845 412.779 173.845 412.892C173.733 413.004 173.508 413.229 173.17 413.229Z" fill="black"/>
</g>
<g id="Group_27">
<path id="Vector_28" d="M191.736 406.813C191.511 406.813 191.399 406.701 191.286 406.588C190.611 405.688 189.823 405.125 189.036 405.012C187.235 404.787 185.66 406.25 185.66 406.363C185.435 406.588 185.097 406.588 184.872 406.363C184.647 406.138 184.647 405.8 184.872 405.575C184.985 405.463 186.898 403.774 189.148 403.999C190.386 404.112 191.399 404.787 192.186 406.025C192.411 406.251 192.299 406.588 192.074 406.813C191.849 406.813 191.849 406.813 191.736 406.813Z" fill="black"/>
</g>
<g id="Group_28">
<path id="Vector_29" d="M188.473 421.447C188.248 421.447 188.135 421.334 188.023 421.222C187.91 420.996 187.91 420.659 188.135 420.434C191.061 418.52 190.948 417.845 190.948 417.845C190.948 417.845 190.836 417.619 189.936 417.507C186.222 417.057 184.647 409.402 184.535 408.502C184.535 408.164 184.647 407.939 184.985 407.826C185.322 407.826 185.547 407.939 185.66 408.276C185.997 410.415 187.573 416.044 190.048 416.269C190.498 416.269 191.849 416.494 192.074 417.394C192.299 418.407 191.286 419.533 188.698 421.109C188.698 421.447 188.585 421.447 188.473 421.447Z" fill="#BC5333"/>
</g>
<g id="Group_29">
<path id="Vector_30" d="M186.447 426.512C184.534 426.512 183.184 425.837 183.184 425.837C182.959 425.724 182.847 425.386 182.959 425.049C183.072 424.823 183.409 424.711 183.747 424.823C183.972 424.936 188.023 426.85 191.848 423.022C192.073 422.797 192.411 422.797 192.636 423.022C192.861 423.247 192.861 423.585 192.636 423.81C190.386 425.949 188.135 426.512 186.447 426.512Z" fill="#BC5333"/>
</g>
<g id="Group_30">
<path id="Vector_31" d="M180.709 416.381C181.579 416.381 182.284 415.625 182.284 414.692C182.284 413.76 181.579 413.004 180.709 413.004C179.839 413.004 179.134 413.76 179.134 414.692C179.134 415.625 179.839 416.381 180.709 416.381Z" fill="#15173D"/>
</g>
<g id="Group_31">
<path id="Vector_32" d="M189.936 413.117C190.806 413.117 191.511 412.361 191.511 411.429C191.511 410.496 190.806 409.74 189.936 409.74C189.066 409.74 188.36 410.496 188.36 411.429C188.36 412.361 189.066 413.117 189.936 413.117Z" fill="#15173D"/>
</g>
</g>
<g id="Layer 39">
<g id="Group_32">
<path id="Vector_33" d="M151.678 455.104C151.678 455.104 109.821 517.24 121.523 539.528L238.545 538.74C238.545 538.74 220.879 472.101 204.001 458.03C204.001 457.918 178.458 478.517 151.678 455.104Z" fill="#A6D2FF"/>
</g>
</g>
<g id="Layer 41">
<g id="Group_33">
<path id="Vector_34" d="M194.211 482.457L169.457 539.078L245.971 539.191L269.375 485.947C270.613 483.02 268.475 479.756 265.324 479.756H198.149C196.574 479.756 194.999 480.769 194.211 482.457Z" fill="#15173D"/>
</g>
</g>
<g id="Layer 46">
<g id="Group_34">
<path id="Vector_35" d="M244.846 509.136C244.846 509.136 239.895 510.6 242.933 514.089L254.185 514.314C254.185 514.314 240.795 514.99 240.795 516.228C240.795 517.466 241.02 519.942 243.495 519.942C245.971 519.942 252.497 519.605 252.497 519.605L243.045 521.856C243.045 521.856 241.245 524.107 244.171 524.333C247.209 524.558 251.034 524.333 251.034 524.333L244.171 526.246C244.171 526.246 244.171 529.398 246.534 529.285C248.896 529.173 255.873 528.16 255.873 528.16C255.873 528.16 259.023 527.034 258.461 523.77C258.461 523.77 260.374 521.518 259.924 519.83C259.924 519.83 261.949 517.579 261.274 515.327C261.274 515.327 263.299 510.037 259.924 509.361C256.548 508.573 244.846 509.136 244.846 509.136Z" fill="#FC7E56"/>
</g>
</g>
<g id="Layer 44">
<g id="Group_35">
<path id="Vector_36" d="M232.694 539.191C232.694 539.191 259.249 550.335 258.911 568.795C258.573 587.256 241.583 585.455 223.804 586.919C206.026 588.382 174.295 590.408 174.295 590.408L145.49 539.078L232.694 539.191Z" fill="#FF454A"/>
</g>
</g>
<g id="Layer 47">
<path id="Vector_37" d="M170.582 564.292C170.582 564.292 207.714 550.672 225.155 551.685" stroke="black" stroke-miterlimit="10" stroke-linecap="round"/>
<path id="Vector_38" d="M215.253 546.17C215.253 546.17 209.627 550.222 210.189 553.149" stroke="black" stroke-miterlimit="10" stroke-linecap="round"/>
</g>
<g id="Layer 70">
<g id="Group_36">
<path id="Vector_39" d="M203.213 629.469C198.937 632.621 192.973 631.833 189.598 627.781L173.282 605.267L183.072 595.699L204.676 614.498C208.726 619 208.051 625.867 203.213 629.469Z" fill="#252A6C"/>
</g>
</g>
<g id="Layer 42">
<g id="Group_37">
<path id="Vector_40" d="M97.8932 510.598C80.34 520.392 99.0185 548.083 110.608 559.565C122.085 571.046 174.52 614.947 174.52 614.947L193.874 597.049L137.388 523.881C137.388 523.881 118.597 499.117 97.8932 510.598Z" fill="#FC4349"/>
</g>
</g>
<g id="Layer 68">
<path id="Vector_41" d="M149.428 539.754L187.235 589.17" stroke="black" stroke-miterlimit="10" stroke-linecap="round"/>
</g>
<g id="Layer 40">
<path id="Vector_42" d="M156.629 483.92L151.453 513.187L177.671 519.153" stroke="black" stroke-miterlimit="10" stroke-linecap="round"/>
<path id="Vector_43" d="M160.342 489.887L154.491 496.303" stroke="black" stroke-miterlimit="10" stroke-linecap="round"/>
</g>
<g id="Layer 18">
<g id="Group_38">
<path id="Vector_44" d="M688.291 577.576H339.476V571.948H688.291C706.97 571.948 722.16 556.752 722.16 538.066V537.503C722.16 518.817 706.97 503.62 688.291 503.62H337.676V497.992H688.291C710.008 497.992 727.786 515.665 727.786 537.503V538.066C727.786 559.903 710.008 577.576 688.291 577.576Z" fill="#FC3935"/>
</g>
</g>
<g id="Layer 73">
<path id="Vector_45" d="M422.854 449.812H414.978V570.371H422.854V449.812Z" fill="#14163C"/>
</g>
<g id="Layer 29">
<g id="Group_39">
<path id="Vector_46" d="M405.413 547.52C405.413 547.52 399.224 562.266 403.388 572.172L458.298 571.946C458.298 571.946 458.298 563.279 453.572 563.279C448.734 563.279 425.667 547.857 425.667 547.857L405.413 547.52Z" fill="#292C71"/>
</g>
<g id="Group_40">
<path id="Vector_47" d="M334.863 547.295C334.863 547.295 328.224 561.14 332.725 568.57L336.325 571.834L388.873 571.722C388.873 571.722 386.51 563.729 382.571 563.392C378.633 563.167 358.042 555.962 356.242 548.533C354.329 541.216 334.863 547.295 334.863 547.295Z" fill="#2B2B71"/>
</g>
</g>
<g id="Layer 69">
<path id="Vector_48" d="M403.613 564.631C403.613 564.631 411.039 562.943 412.389 567.896H450.422C450.422 567.896 452.334 564.406 453.46 564.406" stroke="white" stroke-miterlimit="10" stroke-linecap="round"/>
<path id="Vector_49" d="M332.725 564.968C332.725 564.968 338.688 564.067 340.264 568.007H379.758C379.758 568.007 380.659 565.08 382.684 564.968" stroke="white" stroke-miterlimit="10" stroke-linecap="round"/>
<path id="Vector_50" d="M428.817 558.552C428.817 558.552 433.881 554.162 436.356 554.95" stroke="white" stroke-miterlimit="10" stroke-linecap="round"/>
<path id="Vector_51" d="M432.531 562.155C432.531 562.155 436.694 556.865 440.52 557.54" stroke="white" stroke-miterlimit="10" stroke-linecap="round"/>
<path id="Vector_52" d="M438.382 563.055C438.382 563.055 441.082 558.44 445.246 560.353" stroke="white" stroke-miterlimit="10" stroke-linecap="round"/>
<path id="Vector_53" d="M354.779 558.778C354.779 558.778 359.617 554.388 363.893 556.527" stroke="white" stroke-miterlimit="10" stroke-linecap="round"/>
<path id="Vector_54" d="M358.042 561.479C358.042 561.479 363.33 556.864 368.281 558.777" stroke="white" stroke-miterlimit="10" stroke-linecap="round"/>
<path id="Vector_55" d="M363.443 563.28C363.443 563.28 368.844 559.453 373.007 561.141" stroke="white" stroke-miterlimit="10" stroke-linecap="round"/>
</g>
<g id="Layer 74">
<g id="Group_41">
<path id="Vector_56" d="M476.076 450.264H360.63V442.047H476.076C478.327 442.047 480.24 443.848 480.24 446.212C480.24 448.351 478.327 450.264 476.076 450.264Z" fill="#14163C"/>
</g>
</g>
<g id="Layer 28">
<g id="Group_42">
<path id="Vector_57" d="M347.577 468.611C347.577 468.611 333.85 496.753 333.85 513.638C333.85 530.522 332.274 550.109 332.274 550.109L358.042 551.347C358.042 551.347 365.356 498.329 371.544 490.674C377.62 483.02 382.009 460.957 377.958 459.156C373.907 457.355 349.715 458.143 347.577 468.611Z" fill="#1155C0"/>
</g>
</g>
<g id="Layer 27">
<g id="Group_43">
<path id="Vector_58" d="M260.486 449.814C260.486 449.814 268.925 473.565 294.693 473.227L357.254 472.89L399.562 549.772H428.593L386.96 446.774C386.96 446.774 382.122 439.57 378.183 439.232C374.245 438.895 298.406 434.617 298.406 434.617L260.486 449.814Z" fill="#1470FF"/>
</g>
</g>
<g id="Layer 31">
<g id="Group_44">
<path id="Vector_59" d="M469.1 437.432H422.742V442.159H469.1V437.432Z" fill="#3641C1"/>
</g>
</g>
<g id="Layer 20">
<g id="Group_45">
<path id="Vector_60" d="M263.524 309.444C263.524 309.444 254.86 316.31 262.962 327.117C270.951 337.923 272.976 338.373 272.976 338.373L284.453 325.766C284.453 325.766 286.029 319.35 283.441 315.973L297.281 307.53C297.281 307.53 301.669 295.035 293.117 293.685C284.453 292.334 285.241 298.525 281.303 298.863C277.365 299.2 261.949 300.664 263.524 309.444Z" fill="#15173D"/>
</g>
</g>
<g id="Layer 21">
<g id="Group_46">
<path id="Vector_61" d="M287.716 302.578C287.716 302.578 290.304 313.61 282.765 315.748C282.765 315.748 284.678 320.589 284.678 322.165C284.678 323.628 284.116 325.542 284.116 325.542C284.116 325.542 279.952 322.277 277.252 324.754C275.114 326.78 274.439 329.707 276.689 332.183C278.94 334.547 271.626 337.699 271.626 337.699L270.388 351.094L289.179 358.861C289.179 358.861 286.479 341.301 289.067 340.851C289.067 340.851 310.671 345.691 304.482 326.104C304.482 326.104 308.87 322.165 307.97 321.264C307.07 320.364 301.556 319.913 300.769 318.562C299.981 317.212 297.843 303.591 287.716 302.578Z" fill="#EC6F53"/>
</g>
</g>
<g id="Layer 33">
<g id="Group_47">
<path id="Vector_62" d="M383.922 442.159C383.922 442.159 382.122 438.22 387.41 435.968C392.698 433.717 403.501 436.081 403.501 436.081C403.501 436.081 405.638 438.782 405.526 442.159C405.526 442.047 383.809 442.159 383.922 442.159Z" fill="#322F7E"/>
</g>
</g>
<g id="Layer 34">
<g id="Group_48">
<path id="Vector_63" d="M250.134 261.152C255.198 256.874 258.123 251.696 258.123 246.068C258.123 231.997 239.782 220.516 217.053 220.516C194.324 220.516 175.983 231.997 175.983 246.068C175.983 260.139 194.324 271.621 217.053 271.621C225.042 271.621 232.468 270.157 238.77 267.793L256.773 274.66L250.134 261.152Z" fill="#D2BDFE"/>
</g>
</g>
<g id="Layer 72">
<path id="Vector_64" d="M187.235 248.094L202.313 242.016L211.427 249.896L229.543 241.453L236.181 249.22L247.659 244.38" stroke="white" stroke-width="2" stroke-miterlimit="10" stroke-linecap="round"/>
</g>
<g id="Layer 25">
<g id="Group_49">
<path id="Vector_65" d="M368.957 430.565C368.957 430.565 380.434 427.076 382.122 426.175C383.809 425.275 400.688 424.262 404.063 433.83C404.063 433.83 402.938 435.518 396.412 436.306C389.886 437.094 385.272 438.22 384.034 439.345C382.684 440.471 376.496 441.934 371.995 441.709C367.381 441.484 368.957 430.565 368.957 430.565Z" fill="#EC6F53"/>
</g>
</g>
<g id="Layer 26">
<g id="Group_50">
<path id="Vector_66" d="M396.524 436.869C396.299 436.869 396.186 436.757 396.074 436.532C393.823 432.592 385.947 434.843 385.834 434.843C385.497 434.956 385.272 434.73 385.159 434.505C385.047 434.168 385.272 433.943 385.497 433.83C385.834 433.717 394.386 431.241 397.087 435.969C397.199 436.194 397.199 436.532 396.862 436.757C396.637 436.869 396.524 436.869 396.524 436.869Z" fill="#BC5333"/>
</g>
<g id="Group_51">
<path id="Vector_67" d="M400.912 435.293C400.687 435.293 400.575 435.18 400.462 435.068C395.849 428.426 388.085 430.79 387.748 430.903C387.41 431.015 387.185 430.79 387.072 430.565C386.96 430.228 387.185 430.002 387.41 429.89C387.522 429.89 396.299 427.188 401.475 434.505C401.7 434.73 401.588 435.068 401.363 435.293C401.138 435.293 401.025 435.293 400.912 435.293Z" fill="#BC5333"/>
</g>
</g>
<g id="Layer 23">
<g id="Group_52">
<path id="Vector_68" d="M272.301 347.942C272.301 347.942 268.588 347.829 267.463 352.557C266.338 357.285 254.748 394.544 254.973 416.044C255.311 437.544 257.673 455.329 260.824 455.329C263.975 455.329 297.618 438.332 297.618 438.332C297.618 438.332 298.519 441.371 303.92 441.371C309.321 441.371 371.882 441.709 371.882 441.709V426.963L313.371 416.269L289.179 355.484L272.301 347.942Z" fill="#F74747"/>
</g>
</g>
<g id="Layer 24">
<path id="Vector_69" d="M272.301 403.211L297.731 438.444" stroke="black" stroke-width="1.0081" stroke-miterlimit="10" stroke-linecap="round"/>
<path id="Vector_70" d="M270.613 407.377L276.801 409.516" stroke="black" stroke-width="1.0081" stroke-miterlimit="10" stroke-linecap="round"/>
<path id="Vector_71" d="M267.237 373.719C267.237 373.719 270.275 357.51 289.629 361.337" stroke="black" stroke-width="1.0081" stroke-miterlimit="10" stroke-linecap="round"/>
<path id="Vector_72" d="M313.259 423.247L313.484 416.381L307.52 419.983" stroke="black" stroke-width="1.0081" stroke-miterlimit="10" stroke-linecap="round"/>
</g>
<g id="Layer 22">
<g id="Group_53">
<path id="Vector_73" d="M289.292 318.788C288.954 318.788 288.729 318.45 288.729 318.225C288.729 318.112 288.842 315.748 290.642 314.172C291.655 313.272 293.117 312.934 294.693 313.159C295.03 313.159 295.255 313.497 295.143 313.835C295.143 314.172 294.805 314.398 294.468 314.285C293.117 314.172 291.992 314.398 291.204 315.073C289.854 316.199 289.629 318.225 289.629 318.225C289.854 318.562 289.517 318.788 289.292 318.788Z" fill="black"/>
</g>
<g id="Group_54">
<path id="Vector_74" d="M294.468 321.152C295.151 321.152 295.705 320.598 295.705 319.914C295.705 319.23 295.151 318.676 294.468 318.676C293.784 318.676 293.23 319.23 293.23 319.914C293.23 320.598 293.784 321.152 294.468 321.152Z" fill="#15173D"/>
</g>
<g id="Group_55">
<path id="Vector_75" d="M302.682 333.083C298.743 333.083 296.718 331.507 296.605 331.395L297.281 330.494C297.281 330.494 299.869 332.52 305.045 331.732L305.27 332.858C304.257 332.971 303.469 333.083 302.682 333.083Z" fill="#BC5333"/>
</g>
</g>
<g id="Layer 17">
<g id="Group_56">
<path id="Vector_76" d="M614.365 404.111H516.584V499.567H614.365V404.111Z" fill="#15173D"/>
</g>
<g id="Group_57">
<path id="Vector_77" d="M666.124 480.432H465.5V499.68H666.124V480.432Z" fill="#282A74"/>
</g>
</g>
<g id="Layer 63">
<g id="Group_58">
<path id="Vector_78" d="M315.397 71.8166C317.509 71.8166 319.222 70.1031 319.222 67.9894C319.222 65.8756 317.509 64.1621 315.397 64.1621C313.284 64.1621 311.571 65.8756 311.571 67.9894C311.571 70.1031 313.284 71.8166 315.397 71.8166Z" fill="#AACBF8"/>
</g>
<g id="Group_59">
<path id="Vector_79" d="M315.397 90.3908C317.509 90.3908 319.222 88.6773 319.222 86.5636C319.222 84.4498 317.509 82.7363 315.397 82.7363C313.284 82.7363 311.571 84.4498 311.571 86.5636C311.571 88.6773 313.284 90.3908 315.397 90.3908Z" fill="#AACBF8"/>
</g>
<g id="Group_60">
<path id="Vector_80" d="M315.622 108.625C317.734 108.625 319.447 106.912 319.447 104.798C319.447 102.684 317.734 100.971 315.622 100.971C313.509 100.971 311.796 102.684 311.796 104.798C311.796 106.912 313.509 108.625 315.622 108.625Z" fill="#AACBF8"/>
</g>
<g id="Group_61">
<path id="Vector_81" d="M315.622 127.086C317.734 127.086 319.447 125.373 319.447 123.259C319.447 121.145 317.734 119.432 315.622 119.432C313.509 119.432 311.796 121.145 311.796 123.259C311.796 125.373 313.509 127.086 315.622 127.086Z" fill="#AACBF8"/>
</g>
<g id="Group_62">
<path id="Vector_82" d="M315.622 145.098C317.734 145.098 319.447 143.384 319.447 141.271C319.447 139.157 317.734 137.443 315.622 137.443C313.509 137.443 311.796 139.157 311.796 141.271C311.796 143.384 313.509 145.098 315.622 145.098Z" fill="#AACBF8"/>
</g>
<g id="Group_63">
<path id="Vector_83" d="M315.622 163.67C317.734 163.67 319.447 161.957 319.447 159.843C319.447 157.729 317.734 156.016 315.622 156.016C313.509 156.016 311.796 157.729 311.796 159.843C311.796 161.957 313.509 163.67 315.622 163.67Z" fill="#AACBF8"/>
</g>
<g id="Group_64">
<path id="Vector_84" d="M333.4 71.8166C335.513 71.8166 337.226 70.1031 337.226 67.9894C337.226 65.8756 335.513 64.1621 333.4 64.1621C331.287 64.1621 329.574 65.8756 329.574 67.9894C329.574 70.1031 331.287 71.8166 333.4 71.8166Z" fill="#AACBF8"/>
</g>
<g id="Group_65">
<path id="Vector_85" d="M333.4 90.3908C335.513 90.3908 337.226 88.6773 337.226 86.5636C337.226 84.4498 335.513 82.7363 333.4 82.7363C331.287 82.7363 329.574 84.4498 329.574 86.5636C329.574 88.6773 331.287 90.3908 333.4 90.3908Z" fill="#AACBF8"/>
</g>
<g id="Group_66">
<path id="Vector_86" d="M333.625 108.625C335.738 108.625 337.451 106.912 337.451 104.798C337.451 102.684 335.738 100.971 333.625 100.971C331.512 100.971 329.799 102.684 329.799 104.798C329.799 106.912 331.512 108.625 333.625 108.625Z" fill="#AACBF8"/>
</g>
<g id="Group_67">
<path id="Vector_87" d="M333.625 127.086C335.738 127.086 337.451 125.373 337.451 123.259C337.451 121.145 335.738 119.432 333.625 119.432C331.512 119.432 329.799 121.145 329.799 123.259C329.799 125.373 331.512 127.086 333.625 127.086Z" fill="#AACBF8"/>
</g>
<g id="Group_68">
<path id="Vector_88" d="M333.625 145.098C335.738 145.098 337.451 143.384 337.451 141.271C337.451 139.157 335.738 137.443 333.625 137.443C331.512 137.443 329.799 139.157 329.799 141.271C329.799 143.384 331.512 145.098 333.625 145.098Z" fill="#AACBF8"/>
</g>
<g id="Group_69">
<path id="Vector_89" d="M333.625 163.67C335.738 163.67 337.451 161.957 337.451 159.843C337.451 157.729 335.738 156.016 333.625 156.016C331.512 156.016 329.799 157.729 329.799 159.843C329.799 161.957 331.512 163.67 333.625 163.67Z" fill="#AACBF8"/>
</g>
<g id="Group_70">
<path id="Vector_90" d="M352.528 71.8166C354.641 71.8166 356.354 70.1031 356.354 67.9894C356.354 65.8756 354.641 64.1621 352.528 64.1621C350.415 64.1621 348.703 65.8756 348.703 67.9894C348.703 70.1031 350.415 71.8166 352.528 71.8166Z" fill="#AACBF8"/>
</g>
<g id="Group_71">
<path id="Vector_91" d="M352.528 90.3908C354.641 90.3908 356.354 88.6773 356.354 86.5636C356.354 84.4498 354.641 82.7363 352.528 82.7363C350.415 82.7363 348.703 84.4498 348.703 86.5636C348.703 88.6773 350.415 90.3908 352.528 90.3908Z" fill="#AACBF8"/>
</g>
<g id="Group_72">
<path id="Vector_92" d="M352.753 108.625C354.866 108.625 356.579 106.912 356.579 104.798C356.579 102.684 354.866 100.971 352.753 100.971C350.641 100.971 348.928 102.684 348.928 104.798C348.928 106.912 350.641 108.625 352.753 108.625Z" fill="#AACBF8"/>
</g>
<g id="Group_73">
<path id="Vector_93" d="M352.753 127.086C354.866 127.086 356.579 125.373 356.579 123.259C356.579 121.145 354.866 119.432 352.753 119.432C350.641 119.432 348.928 121.145 348.928 123.259C348.928 125.373 350.641 127.086 352.753 127.086Z" fill="#AACBF8"/>
</g>
<g id="Group_74">
<path id="Vector_94" d="M352.753 145.098C354.866 145.098 356.579 143.384 356.579 141.271C356.579 139.157 354.866 137.443 352.753 137.443C350.641 137.443 348.928 139.157 348.928 141.271C348.928 143.384 350.641 145.098 352.753 145.098Z" fill="#AACBF8"/>
</g>
<g id="Group_75">
<path id="Vector_95" d="M352.753 163.67C354.866 163.67 356.579 161.957 356.579 159.843C356.579 157.729 354.866 156.016 352.753 156.016C350.641 156.016 348.928 157.729 348.928 159.843C348.928 161.957 350.641 163.67 352.753 163.67Z" fill="#AACBF8"/>
</g>
<g id="Group_76">
<path id="Vector_96" d="M369.407 71.8166C371.52 71.8166 373.233 70.1031 373.233 67.9894C373.233 65.8756 371.52 64.1621 369.407 64.1621C367.294 64.1621 365.581 65.8756 365.581 67.9894C365.581 70.1031 367.294 71.8166 369.407 71.8166Z" fill="#AACBF8"/>
</g>
<g id="Group_77">
<path id="Vector_97" d="M369.407 90.3908C371.52 90.3908 373.233 88.6773 373.233 86.5636C373.233 84.4498 371.52 82.7363 369.407 82.7363C367.294 82.7363 365.581 84.4498 365.581 86.5636C365.581 88.6773 367.294 90.3908 369.407 90.3908Z" fill="#AACBF8"/>
</g>
<g id="Group_78">
<path id="Vector_98" d="M369.632 110.315C366.594 110.315 364.118 107.838 364.118 104.799C364.118 101.76 366.594 99.2832 369.632 99.2832C372.67 99.2832 375.145 101.76 375.145 104.799C375.145 107.838 372.67 110.315 369.632 110.315ZM369.632 102.66C368.506 102.66 367.494 103.673 367.494 104.799C367.494 105.925 368.506 106.938 369.632 106.938C370.757 106.938 371.77 105.925 371.77 104.799C371.77 103.673 370.757 102.66 369.632 102.66Z" fill="black"/>
</g>
<g id="Group_79">
<path id="Vector_99" d="M369.632 128.776C366.594 128.776 364.118 126.299 364.118 123.26C364.118 120.221 366.594 117.744 369.632 117.744C372.67 117.744 375.145 120.221 375.145 123.26C375.145 126.299 372.67 128.776 369.632 128.776ZM369.632 121.121C368.506 121.121 367.494 122.134 367.494 123.26C367.494 124.386 368.506 125.399 369.632 125.399C370.757 125.399 371.77 124.386 371.77 123.26C371.77 122.134 370.757 121.121 369.632 121.121Z" fill="black"/>
</g>
<g id="Group_80">
<path id="Vector_100" d="M369.632 146.785C366.594 146.785 364.118 144.309 364.118 141.27C364.118 138.23 366.594 135.754 369.632 135.754C372.67 135.754 375.145 138.23 375.145 141.27C375.145 144.309 372.67 146.785 369.632 146.785ZM369.632 139.131C368.506 139.131 367.494 140.144 367.494 141.27C367.494 142.395 368.506 143.408 369.632 143.408C370.757 143.408 371.77 142.395 371.77 141.27C371.77 140.144 370.757 139.131 369.632 139.131Z" fill="black"/>
</g>
<g id="Group_81">
<path id="Vector_101" d="M369.632 165.36C366.594 165.36 364.118 162.883 364.118 159.844C364.118 156.805 366.594 154.328 369.632 154.328C372.67 154.328 375.145 156.805 375.145 159.844C375.145 162.883 372.67 165.36 369.632 165.36ZM369.632 157.705C368.506 157.705 367.494 158.718 367.494 159.844C367.494 160.97 368.506 161.983 369.632 161.983C370.757 161.983 371.77 160.97 371.77 159.844C371.77 158.718 370.757 157.705 369.632 157.705Z" fill="black"/>
</g>
<g id="Group_82">
<path id="Vector_102" d="M387.41 71.8166C389.523 71.8166 391.236 70.1031 391.236 67.9894C391.236 65.8756 389.523 64.1621 387.41 64.1621C385.297 64.1621 383.584 65.8756 383.584 67.9894C383.584 70.1031 385.297 71.8166 387.41 71.8166Z" fill="#AACBF8"/>
</g>
<g id="Group_83">
<path id="Vector_103" d="M387.41 90.3908C389.523 90.3908 391.236 88.6773 391.236 86.5636C391.236 84.4498 389.523 82.7363 387.41 82.7363C385.297 82.7363 383.584 84.4498 383.584 86.5636C383.584 88.6773 385.297 90.3908 387.41 90.3908Z" fill="#AACBF8"/>
</g>
<g id="Group_84">
<path id="Vector_104" d="M387.635 110.315C384.597 110.315 382.122 107.838 382.122 104.799C382.122 101.76 384.597 99.2832 387.635 99.2832C390.673 99.2832 393.149 101.76 393.149 104.799C393.149 107.838 390.673 110.315 387.635 110.315ZM387.635 102.66C386.51 102.66 385.497 103.673 385.497 104.799C385.497 105.925 386.51 106.938 387.635 106.938C388.76 106.938 389.773 105.925 389.773 104.799C389.773 103.673 388.76 102.66 387.635 102.66Z" fill="black"/>
</g>
<g id="Group_85">
<path id="Vector_105" d="M387.635 128.776C384.597 128.776 382.122 126.299 382.122 123.26C382.122 120.221 384.597 117.744 387.635 117.744C390.673 117.744 393.149 120.221 393.149 123.26C393.149 126.299 390.673 128.776 387.635 128.776ZM387.635 121.121C386.51 121.121 385.497 122.134 385.497 123.26C385.497 124.386 386.51 125.399 387.635 125.399C388.76 125.399 389.773 124.386 389.773 123.26C389.773 122.134 388.76 121.121 387.635 121.121Z" fill="black"/>
</g>
<g id="Group_86">
<path id="Vector_106" d="M387.635 146.785C384.597 146.785 382.122 144.309 382.122 141.27C382.122 138.23 384.597 135.754 387.635 135.754C390.673 135.754 393.149 138.23 393.149 141.27C393.149 144.309 390.673 146.785 387.635 146.785ZM387.635 139.131C386.51 139.131 385.497 140.144 385.497 141.27C385.497 142.395 386.51 143.408 387.635 143.408C388.76 143.408 389.773 142.395 389.773 141.27C389.773 140.144 388.76 139.131 387.635 139.131Z" fill="black"/>
</g>
<g id="Group_87">
<path id="Vector_107" d="M387.635 165.36C384.597 165.36 382.122 162.883 382.122 159.844C382.122 156.805 384.597 154.328 387.635 154.328C390.673 154.328 393.149 156.805 393.149 159.844C393.149 162.883 390.673 165.36 387.635 165.36ZM387.635 157.705C386.51 157.705 385.497 158.718 385.497 159.844C385.497 160.97 386.51 161.983 387.635 161.983C388.76 161.983 389.773 160.97 389.773 159.844C389.773 158.718 388.76 157.705 387.635 157.705Z" fill="black"/>
</g>
<g id="Group_88">
<path id="Vector_108" d="M405.414 71.8166C407.526 71.8166 409.239 70.1031 409.239 67.9894C409.239 65.8756 407.526 64.1621 405.414 64.1621C403.301 64.1621 401.588 65.8756 401.588 67.9894C401.588 70.1031 403.301 71.8166 405.414 71.8166Z" fill="#AACBF8"/>
</g>
<g id="Group_89">
<path id="Vector_109" d="M405.414 90.3908C407.526 90.3908 409.239 88.6773 409.239 86.5636C409.239 84.4498 407.526 82.7363 405.414 82.7363C403.301 82.7363 401.588 84.4498 401.588 86.5636C401.588 88.6773 403.301 90.3908 405.414 90.3908Z" fill="#AACBF8"/>
</g>
<g id="Group_90">
<path id="Vector_110" d="M405.639 110.315C402.6 110.315 400.125 107.838 400.125 104.799C400.125 101.76 402.6 99.2832 405.639 99.2832C408.677 99.2832 411.152 101.76 411.152 104.799C411.152 107.838 408.677 110.315 405.639 110.315ZM405.639 102.66C404.513 102.66 403.501 103.673 403.501 104.799C403.501 105.925 404.513 106.938 405.639 106.938C406.764 106.938 407.776 105.925 407.776 104.799C407.776 103.673 406.764 102.66 405.639 102.66Z" fill="black"/>
</g>
<g id="Group_91">
<path id="Vector_111" d="M405.639 128.776C402.6 128.776 400.125 126.299 400.125 123.26C400.125 120.221 402.6 117.744 405.639 117.744C408.677 117.744 411.152 120.221 411.152 123.26C411.152 126.299 408.677 128.776 405.639 128.776ZM405.639 121.121C404.513 121.121 403.501 122.134 403.501 123.26C403.501 124.386 404.513 125.399 405.639 125.399C406.764 125.399 407.776 124.386 407.776 123.26C407.776 122.134 406.764 121.121 405.639 121.121Z" fill="black"/>
</g>
<g id="Group_92">
<path id="Vector_112" d="M405.639 146.785C402.6 146.785 400.125 144.309 400.125 141.27C400.125 138.23 402.6 135.754 405.639 135.754C408.677 135.754 411.152 138.23 411.152 141.27C411.152 144.309 408.677 146.785 405.639 146.785ZM405.639 139.131C404.513 139.131 403.501 140.144 403.501 141.27C403.501 142.395 404.513 143.408 405.639 143.408C406.764 143.408 407.776 142.395 407.776 141.27C407.776 140.144 406.764 139.131 405.639 139.131Z" fill="black"/>
</g>
<g id="Group_93">
<path id="Vector_113" d="M405.639 165.36C402.6 165.36 400.125 162.883 400.125 159.844C400.125 156.805 402.6 154.328 405.639 154.328C408.677 154.328 411.152 156.805 411.152 159.844C411.152 162.883 408.677 165.36 405.639 165.36ZM405.639 157.705C404.513 157.705 403.501 158.718 403.501 159.844C403.501 160.97 404.513 161.983 405.639 161.983C406.764 161.983 407.776 160.97 407.776 159.844C407.776 158.718 406.764 157.705 405.639 157.705Z" fill="black"/>
</g>
</g>
<g id="Layer 15">
<g id="Group_94">
<path id="Vector_114" d="M756.929 404.225H374.245C368.506 404.225 363.893 399.61 363.893 393.869V102.999C363.893 97.2578 368.506 92.6426 374.245 92.6426H756.929C762.668 92.6426 767.281 97.2578 767.281 102.999V393.981C767.281 399.61 762.668 404.225 756.929 404.225Z" fill="#1F215E"/>
</g>
</g>
<g id="Layer 67">
<g id="Group_95">
<path id="Vector_115" d="M466.512 438.219L493.18 398.371H496.78L469.1 442.159L466.512 438.219Z" fill="#3641C1"/>
</g>
</g>
<g id="Layer 16">
<g id="Group_96">
<path id="Vector_116" d="M747.477 374.732H383.809C378.634 374.732 374.47 370.567 374.47 365.389V112.341C374.47 107.163 378.634 102.998 383.809 102.998H747.477C752.653 102.998 756.817 107.163 756.817 112.341V365.389C756.929 370.567 752.653 374.732 747.477 374.732Z" fill="white"/>
</g>
</g>
<g id="Layer 2">
<g id="Group_97">
<path id="Vector_117" d="M596.812 106.263C596.812 106.263 575.32 84.9878 592.761 70.8045C592.761 70.8045 585.222 47.3908 598.387 41.1996C611.552 35.0085 621.229 49.7547 626.292 51.6683C631.356 53.5819 658.248 60.561 660.386 60.7861C662.524 61.0112 670.288 69.3411 669.275 83.8621C669.275 83.8621 674.901 83.8621 670.851 99.1711C666.8 114.48 666.237 123.373 666.237 128.213C666.237 133.053 654.648 143.522 644.183 140.82C633.719 138.119 596.812 106.263 596.812 106.263Z" fill="#15173D"/>
</g>
</g>
<g id="Layer 14">
<g id="Group_98">
<path id="Vector_118" d="M316.634 268.019L352.078 375.52H490.592L457.736 267.682L316.634 268.019Z" fill="#15173D"/>
</g>
</g>
<g id="Layer 3">
<g id="Group_99">
<path id="Vector_119" d="M605.926 71.1406C605.926 71.1406 603.225 82.7349 594.674 82.7349C594.674 82.7349 594.449 104.01 593.324 110.989C592.198 117.968 588.485 150.274 606.714 152.638L600.525 177.628C600.525 177.628 632.256 191.361 653.972 174.701C653.972 174.701 643.17 149.486 646.771 127.649C646.771 127.649 659.148 135.191 661.511 120.67C663.874 106.149 645.983 109.863 644.858 116.054C644.858 116.054 637.319 108.513 644.296 93.7664C644.296 93.7664 628.205 86.5621 630.906 72.2663C630.906 72.2663 626.067 81.159 618.528 81.159C610.989 81.159 605.926 71.1406 605.926 71.1406Z" fill="#F88254"/>
</g>
</g>
<g id="Layer 10">
<g id="Group_100">
<path id="Vector_120" d="M637.094 99.6226C636.644 99.6226 636.194 99.2849 635.969 98.8346C633.494 90.2796 620.554 92.3058 620.441 92.3058C619.766 92.4184 619.203 91.9681 619.203 91.4053C619.091 90.8424 619.541 90.167 620.104 90.167C625.279 89.2665 635.856 89.9419 638.219 98.3844C638.444 98.9472 637.994 99.6226 637.432 99.7351C637.319 99.6226 637.207 99.6226 637.094 99.6226Z" fill="black"/>
</g>
<g id="Group_101">
<path id="Vector_121" d="M596.924 95.4568C596.699 95.4568 596.474 95.3443 596.249 95.2317C595.687 94.894 595.574 94.2186 595.912 93.6558C595.912 93.5432 600.975 86.339 609.752 90.5039C610.314 90.7291 610.539 91.4045 610.314 91.9673C610.089 92.5301 609.414 92.7553 608.851 92.5301C601.875 89.1531 598.049 94.6689 597.824 94.894C597.712 95.2317 597.262 95.4568 596.924 95.4568Z" fill="black"/>
</g>
<g id="Group_102">
<path id="Vector_122" d="M611.44 121.572C611.215 121.347 610.765 121.121 610.314 120.896C608.289 119.771 605.139 118.082 605.026 115.718C604.913 114.368 605.814 113.017 607.501 111.778C612.902 107.951 611.327 98.158 611.327 98.0454L613.015 97.8203C613.127 98.2706 614.703 108.739 608.514 113.129C607.276 114.03 606.714 114.818 606.714 115.606C606.826 117.182 609.527 118.532 611.102 119.433C611.665 119.771 612.115 119.996 612.452 120.221L611.44 121.572Z" fill="#BC5333"/>
</g>
<g id="Group_103">
<path id="Vector_123" d="M613.69 139.133C607.839 137.445 602.213 126.413 602.213 126.413C602.213 126.413 617.516 130.691 627.418 125.963C637.432 121.348 619.204 140.709 613.69 139.133Z" fill="#FFFDFF"/>
</g>
<g id="Group_104">
<path id="Vector_124" d="M613.802 154.104C611.552 154.104 609.189 153.879 606.601 153.429L606.939 151.74C635.969 157.031 643.733 128.889 644.071 127.764L645.758 128.214C645.646 128.439 638.557 154.104 613.802 154.104Z" fill="#BC5333"/>
</g>
<g id="Group_105">
<path id="Vector_125" d="M624.492 107.84C625.983 107.84 627.193 106.328 627.193 104.463C627.193 102.598 625.983 101.086 624.492 101.086C623.001 101.086 621.792 102.598 621.792 104.463C621.792 106.328 623.001 107.84 624.492 107.84Z" fill="#15173D"/>
</g>
<g id="Group_106">
<path id="Vector_126" d="M604.238 107.501C605.605 107.501 606.714 106.04 606.714 104.237C606.714 102.434 605.605 100.973 604.238 100.973C602.871 100.973 601.763 102.434 601.763 104.237C601.763 106.04 602.871 107.501 604.238 107.501Z" fill="#15173D"/>
</g>
<g id="Group_107">
<path id="Vector_127" d="M656.451 115.726L646.764 120.996L647.57 122.479L657.257 117.21L656.451 115.726Z" fill="#BC5333"/>
</g>
<g id="Group_108">
<path id="Vector_128" d="M651.641 118.933L650.38 120.055L653.744 123.841L655.005 122.719L651.641 118.933Z" fill="#BC5333"/>
</g>
<g id="Group_109">
<path id="Vector_129" d="M614.252 146.786C610.314 146.786 608.739 144.647 608.626 144.535L609.977 143.521C610.089 143.634 612.452 146.673 619.316 143.972L619.991 145.548C617.741 146.448 615.828 146.786 614.252 146.786Z" fill="#BC5333"/>
</g>
</g>
<g id="Layer 12">
<path id="Vector_130" d="M592.536 94.668L564.968 128.888C562.38 132.04 564.63 136.88 568.794 136.88H586.685" stroke="black" stroke-width="2" stroke-miterlimit="10" stroke-linecap="round"/>
</g>
<g id="Layer 11">
<g id="Group_110">
<path id="Vector_131" d="M597.037 144.085H585.672C582.522 144.085 579.934 141.496 579.934 138.344C579.934 135.193 582.522 132.604 585.672 132.604H597.037C600.187 132.604 602.775 135.193 602.775 138.344C602.888 141.496 600.3 144.085 597.037 144.085Z" fill="#1D1441"/>
</g>
</g>
<g id="Layer 4">
<g id="Group_111">
<path id="Vector_132" d="M587.135 178.642L603.226 166.822C603.226 166.822 615.603 187.197 651.61 167.948C651.61 167.948 654.31 177.403 662.074 179.767L665.562 188.885L617.178 213.312L586.235 183.707L587.135 178.642Z" fill="white"/>
</g>
</g>
<g id="Layer 51">
<path id="Vector_133" d="M699.318 126.748H708.77" stroke="black" stroke-width="0.9924" stroke-miterlimit="10" stroke-linecap="round"/>
<path id="Vector_134" d="M716.421 117.744L726.211 127.537" stroke="black" stroke-width="0.9924" stroke-miterlimit="10" stroke-linecap="round"/>
<path id="Vector_135" d="M726.661 117.406L716.084 127.875" stroke="black" stroke-width="0.9924" stroke-miterlimit="10" stroke-linecap="round"/>
<path id="Vector_136" d="M744.327 116.73H733.075V128.325H744.327V116.73Z" stroke="black" stroke-width="0.9924" stroke-miterlimit="10" stroke-linecap="round" stroke-linejoin="bevel"/>
</g>
<g id="Layer 52">
<g id="Group_112">
<path id="Vector_137" d="M825.229 63.8242H778.758V113.578H825.229V63.8242Z" fill="#FECE26"/>
</g>
</g>
<g id="Layer 53">
<g id="Group_113">
<g id="Group_114">
<path id="Vector_138" d="M804.75 95.3438L815.89 121.909L820.953 114.93L834.456 127.875L841.432 120.446L827.03 107.501L833.556 100.972L804.75 95.3438Z" fill="#A3D2FE"/>
</g>
<g id="Group_115">
<path id="Vector_139" d="M834.569 129.564L821.179 116.619L815.665 124.161L802.95 93.8809L835.919 100.297L828.718 107.501L843.12 120.446L834.569 129.564ZM820.841 113.242L834.456 126.412L839.857 120.672L825.454 107.614L831.305 101.76L806.663 97.0327L816.228 119.771L820.841 113.242Z" fill="white"/>
</g>
</g>
</g>
<g id="Layer 5">
<g id="Group_116">
<path id="Vector_140" d="M590.398 177.516C590.398 177.516 570.144 182.919 566.769 184.72C564.406 186.071 541.564 203.181 539.651 232.335C537.513 263.516 533.237 283.44 533.237 283.44L504.769 220.291L468.763 228.058L511.633 374.844H733.862C733.862 374.844 722.61 210.047 686.266 194.175C686.266 194.175 666.125 179.092 661.849 178.866C661.849 178.866 651.609 199.016 629.33 198.791C607.051 198.565 592.536 194.175 590.398 177.516Z" fill="#1470FF"/>
</g>
</g>
<g id="Layer 6">
<path id="Vector_141" d="M548.54 340.173L665.674 318.898C665.674 318.898 675.914 318.898 679.515 324.414" stroke="black" stroke-width="2" stroke-miterlimit="10" stroke-linecap="round"/>
<path id="Vector_142" d="M682.89 194.738C682.89 194.738 658.811 210.948 660.611 247.982C662.412 285.016 666.575 318.561 666.575 318.561" stroke="black" stroke-width="2" stroke-miterlimit="10" stroke-linecap="round"/>
<path id="Vector_143" d="M556.867 234.586L547.19 336.908" stroke="black" stroke-width="2" stroke-miterlimit="10" stroke-linecap="round"/>
</g>
<g id="Layer 7">
<g id="Group_117">
<path id="Vector_144" d="M393.148 163.783C393.373 166.034 395.061 167.722 397.312 168.06L423.754 170.874C423.754 170.874 422.066 171.887 421.841 174.476C421.616 177.065 421.279 181.23 423.867 182.581C423.867 182.581 418.691 188.547 423.979 192.037C423.979 192.037 422.854 201.492 429.155 203.406C435.456 205.319 457.06 204.081 457.06 204.081C457.06 204.081 460.999 203.969 462.574 207.908C464.037 211.848 472.026 228.958 472.026 228.958L503.419 221.979L486.316 179.88C486.316 179.88 477.764 155.565 465.725 155.228C455.71 155.002 411.939 157.817 397.424 158.717C394.949 159.055 392.923 161.306 393.148 163.783Z" fill="#FF7D59"/>
</g>
<g id="Group_118">
<path id="Vector_145" d="M445.358 374.505C445.358 374.505 467.413 342.199 508.033 342.761L548.315 341.186L554.279 373.942C554.279 373.942 515.347 375.856 508.82 370.228C508.82 370.228 488.004 368.652 485.078 374.843C485.191 374.73 445.358 373.267 445.358 374.505Z" fill="#FF7D59"/>
</g>
</g>
<g id="Layer 13">
<g id="Group_119">
<path id="Vector_146" d="M458.298 374.395L457.061 373.269C457.848 372.481 476.639 353.12 492.392 352.332L492.505 354.021C477.427 354.696 458.523 374.17 458.298 374.395Z" fill="#BC5333"/>
</g>
<g id="Group_120">
<path id="Vector_147" d="M473.039 373.719L471.914 372.368C472.476 371.918 487.104 359.986 496.556 360.323V362.012C496.443 362.012 496.331 362.012 496.331 362.012C487.441 362.012 473.264 373.606 473.039 373.719Z" fill="#BC5333"/>
</g>
</g>
<g id="Layer 9">
<g id="Group_121">
<path id="Vector_148" d="M445.471 184.157C438.269 184.157 426.792 183.032 426.229 183.032L426.342 181.343C426.455 181.343 441.645 182.806 448.059 182.469C449.184 182.356 449.971 182.018 450.309 181.343C451.434 179.429 450.197 175.49 449.409 173.689L428.03 171.55L428.255 169.861L450.647 172.113L450.872 172.563C451.209 173.238 453.797 178.979 451.884 182.244C451.209 183.482 449.971 184.157 448.284 184.27C447.383 184.157 446.483 184.157 445.471 184.157Z" fill="#BC5333"/>
</g>
<g id="Group_122">
<path id="Vector_149" d="M439.395 193.612C433.881 193.612 427.805 193.387 425.892 193.275L426.005 191.586C433.656 191.924 446.371 192.262 447.946 191.361C449.071 190.798 448.396 186.521 447.384 183.594L448.959 183.031C449.409 184.382 451.659 191.361 448.621 192.825C447.609 193.387 443.67 193.612 439.395 193.612Z" fill="#BC5333"/>
</g>
<g id="Group_123">
<path id="Vector_150" d="M435.456 203.068C434.331 203.068 433.656 202.955 433.543 202.955L433.656 201.267C433.769 201.267 442.208 201.942 445.696 198.34C446.933 197.102 447.384 195.526 447.159 193.387L448.846 193.162C449.184 195.751 448.509 197.777 446.933 199.466C444.008 202.618 438.382 203.068 435.456 203.068Z" fill="#BC5333"/>
</g>
</g>
<g id="Layer 8">
<g id="Group_124">
<g id="Group_125">
<path id="Vector_151" d="M452.559 157.029C452.559 157.029 444.345 165.134 441.532 167.16C438.832 169.186 433.656 174.702 438.607 179.542C443.558 184.383 451.772 173.464 454.135 172.563C456.498 171.55 463.812 170.762 465.724 173.576" fill="#FF7D59"/>
</g>
<g id="Group_126">
<path id="Vector_152" d="M441.645 181.681C440.407 181.681 439.282 181.231 438.157 180.218C436.469 178.642 435.681 176.728 435.794 174.702C436.019 170.537 440.295 167.16 441.082 166.484C443.783 164.458 451.884 156.466 451.997 156.354L453.234 157.592C452.897 157.929 444.908 165.809 442.095 167.835C440.07 169.299 437.594 172.113 437.482 174.814C437.369 176.278 438.044 177.741 439.282 178.979C442.095 181.793 446.483 178.191 450.759 174.252C452.109 173.013 453.122 172.113 453.91 171.775C456.273 170.762 464.149 169.749 466.512 173.013L465.162 174.026C463.586 171.775 456.835 172.45 454.585 173.351C454.135 173.576 453.009 174.589 451.997 175.49C449.296 177.966 445.246 181.681 441.645 181.681Z" fill="#BC5333"/>
</g>
</g>
</g>
<g id="Layer 71">
<g id="Group_127">
<path id="Vector_153" d="M719.572 419.195L717.097 437.881L737.463 429.776L719.572 419.195Z" fill="#FDCD25"/>
</g>
</g>
<g id="Layer 75">
<path id="Vector_154" d="M492.955 398.146L453.685 341.188L384.935 410.19L466.512 438.219L492.955 398.146Z" fill="url(#paint0_linear)"/>
</g>
</g>
<defs>
<linearGradient id="paint0_linear" x1="394.713" y1="362.507" x2="489.953" y2="413.403" gradientUnits="userSpaceOnUse">
<stop offset="0.5367" stop-color="white" stop-opacity="0"/>
<stop offset="1" stop-color="white" stop-opacity="0.3"/>
</linearGradient>
</defs>
</svg>
